<svg viewBox="0 0 24 24" fill="currentColor" xmlns="http://www.w3.org/2000/svg">
  <path fill-rule="evenodd" clip-rule="evenodd" d="M17.157 5.562c.432.33.355.991-.131 1.232a2.2 2.2 0 00-1.085 1.2l-2.428 6.48a2.178 2.178 0 00-.132.934c.015.184-.192.343-.35.251L6.068 11.64c-.159-.092-.124-.35.042-.43a2.18 2.18 0 00.744-.58l4.397-5.343a2.2 2.2 0 00.497-1.54c-.036-.559.515-.969 1.03-.75 1.614.686 2.964 1.485 4.378 2.565zm3.386.22a.984.984 0 01-.228 1.617l-2.403 1.188a.2.2 0 00-.099.109l-2.427 6.479a.18.18 0 00.025.171c1.175 1.57-.648 3.623-2.346 2.643l-3.65-2.107-5.497 7.92c-.14.202-.45.023-.345-.199l4.11-8.721-3.648-2.107c-1.699-.98-.832-3.585 1.115-3.353a.18.18 0 00.16-.064l4.398-5.342a.2.2 0 00.045-.14L9.58 1.171A.979.979 0 0110.846.164c4.074 1.29 6.504 2.768 9.698 5.617z"/>
</svg>
