<svg viewBox="0 0 24 24" fill="currentColor" xmlns="http://www.w3.org/2000/svg">
  <path fill-rule="evenodd" clip-rule="evenodd" d="M12.85 8.973l1.07-4.323.087 2.242c.038.979-.459 1.773-1.156 2.082zM13.31.86c.277-1.124 1.925-.956 1.97.201l.225 5.773c.06 1.555-.772 3.046-2.231 3.586-.505.188-.946.323-1.316.416-.596.15-1.02-.374-.873-.97L13.31.858zm1.01 9.249c.337-.29.775-.663 1.384-1.108l.453 4.028c.247 2.194-1.33 4.166-3.52 4.44-.68.086-1.499.19-2.535.324a1.002 1.002 0 01-1.08-1.314l1.402-4.113c.273-.8 1.031-.998 1.837-1.209.566-.148 1.156-.302 1.617-.674.11-.09.234-.196.377-.319l.064-.055zm.198 1.76l.149 1.328c.153 1.365-.828 2.61-2.217 2.784l-1.749.223 1.136-3.333c.06-.037.19-.094.476-.175l.25-.067c.247-.065.576-.15.84-.238a4.75 4.75 0 001.115-.521zm.438 6.797c-.675.362-1.387.67-2.181.756h-.005c-1.037.112-1.89.204-2.57.444-.622.22-.876.482-.995.834l-.61 1.801H14.1a1.5 1.5 0 001.488-1.689l-.296-2.332a15.12 15.12 0 01-.336.186zm.13-1.805c-1.02.614-1.746.992-2.471 1.07l-.113.012c-1.937.207-4.096.439-4.718 2.276l-.833 2.461A1 1 0 007.9 24h6.2a3 3 0 002.977-3.378L16.489 16l-.635.39h-.001c-.275.17-.529.326-.767.47z"/>
</svg>
